<svg width="20" height="20" viewBox="0 0 20 20" fill="none" xmlns="http://www.w3.org/2000/svg">
<path d="M7.63332 9.05834C7.54999 9.05 7.44999 9.05 7.35832 9.05834C5.37499 8.99167 3.79999 7.36667 3.79999 5.36667C3.79999 3.32501 5.44999 1.66667 7.49999 1.66667C9.54166 1.66667 11.2 3.32501 11.2 5.36667C11.1917 7.36667 9.61666 8.99167 7.63332 9.05834Z" stroke="#94A3B8" stroke-width="1.5" stroke-linecap="round" stroke-linejoin="round"/>
<path d="M13.675 3.33333C15.2916 3.33333 16.5917 4.64166 16.5917 6.25C16.5917 7.825 15.3417 9.10833 13.7833 9.16666C13.7167 9.15833 13.6417 9.15833 13.5667 9.16666" stroke="#94A3B8" stroke-width="1.5" stroke-linecap="round" stroke-linejoin="round"/>
<path d="M3.46666 12.1333C1.45 13.4833 1.45 15.6833 3.46666 17.025C5.75833 18.5583 9.51666 18.5583 11.8083 17.025C13.825 15.675 13.825 13.475 11.8083 12.1333C9.525 10.6083 5.76666 10.6083 3.46666 12.1333Z" stroke="#94A3B8" stroke-width="1.5" stroke-linecap="round" stroke-linejoin="round"/>
<path d="M15.2833 16.6667C15.8833 16.5417 16.45 16.3 16.9167 15.9417C18.2167 14.9667 18.2167 13.3583 16.9167 12.3833C16.4583 12.0333 15.9 11.8 15.3083 11.6667" stroke="#94A3B8" stroke-width="1.5" stroke-linecap="round" stroke-linejoin="round"/>
</svg>
