<svg width="20" height="20" viewBox="0 0 20 20" fill="none" xmlns="http://www.w3.org/2000/svg">
<g id="tabler:dots">
<g id="Group">
<path id="Vector" d="M4.16668 10.8333C4.62691 10.8333 5.00001 10.4602 5.00001 10C5.00001 9.53977 4.62691 9.16667 4.16668 9.16667C3.70644 9.16667 3.33334 9.53977 3.33334 10C3.33334 10.4602 3.70644 10.8333 4.16668 10.8333Z" stroke="#94A3B8" stroke-width="1.5" stroke-linecap="round" stroke-linejoin="round"/>
<path id="Vector_2" d="M10 10.8333C10.4603 10.8333 10.8334 10.4602 10.8334 10C10.8334 9.53977 10.4603 9.16667 10 9.16667C9.53978 9.16667 9.16669 9.53977 9.16669 10C9.16669 10.4602 9.53978 10.8333 10 10.8333Z" stroke="#94A3B8" stroke-width="1.5" stroke-linecap="round" stroke-linejoin="round"/>
<path id="Vector_3" d="M15.8333 10.8333C16.2936 10.8333 16.6667 10.4602 16.6667 10C16.6667 9.53977 16.2936 9.16667 15.8333 9.16667C15.3731 9.16667 15 9.53977 15 10C15 10.4602 15.3731 10.8333 15.8333 10.8333Z" stroke="#94A3B8" stroke-width="1.5" stroke-linecap="round" stroke-linejoin="round"/>
</g>
</g>
</svg>
